<?xml version="1.0" encoding="UTF-8"?>
<svg xmlns="http://www.w3.org/2000/svg" version="1.1" viewBox="0 0 595.3 841.9">
  <defs>
    <style>
      .cls-1 {
        fill: #ec8007;
      }

      .cls-2 {
        fill: #fab621;
      }

      .cls-3 {
        fill: #fcd91b;
      }

      .cls-4 {
        fill: #fab628;
      }
    </style>
  </defs>
  <!-- Generator: Adobe Illustrator 28.7.5, SVG Export Plug-In . SVG Version: 1.2.0 Build 176)  -->
  <g>
    <g id="Calque_1">
      <g>
        <g>
          <polygon class="cls-2" points="298.5 437.1 365.6 334 324.4 333.9 278.2 403.2 298.5 437.1"/>
          <polygon class="cls-3" points="298.3 437.9 235.6 334 275.5 334 319.6 404.7 298.3 437.9"/>
          <polygon class="cls-1" points="319.6 404.7 305.2 362.9 299.1 371.9 319.6 404.7"/>
        </g>
        <g>
          <path class="cls-4" d="M116.4,233.3h184.2v26h-156.7v225.2s-1,25.5,25.8,25.5h130.9v27.5h-132.4s-52.6,0-52.6-52.6.7-252.9.7-251.7Z"/>
          <path class="cls-4" d="M484.8,233.3h-184.2s0,26,0,26h156.7v225.2s1,25.5-25.8,25.5h-130.9s0,27.5,0,27.5h132.4s52.6,0,52.6-52.6-.7-252.9-.7-251.7Z"/>
        </g>
        <g>
          <path class="cls-4" d="M300.6,142s-49.8-1.6-49.8,46.2v84.5h-28.5v-84.5s-1-71.7,78.3-71.7v25.5Z"/>
          <path class="cls-4" d="M300.6,142s49.8-1.6,49.8,46.2c0,47.8,0,84.5,0,84.5h28.5s0-84.5,0-84.5c0,0,1-71.7-78.3-71.7v25.5Z"/>
        </g>
        <g>
          <g>
            <path class="cls-4" d="M70,581h20.4l10.7,23.1c2,4.6,3.4,8.5,4.1,11.7h.3c.6-2.8,1.4-5.2,2.1-7l11.9-27.8h20.9l-25.9,52.3h-18.2l-26.4-52.3Z"/>
            <path class="cls-4" d="M151,581h39.6v11.1h-20v9.6h17.4v10.9h-17.4v9.5h20.2v11.2h-39.7v-52.3Z"/>
            <path class="cls-4" d="M206.1,581h19.8l24.9,30.2-.7-5.6v-24.5h19.6v52.3h-20.1l-24.4-29.7.5,6.5v23.2h-19.6v-52.3Z"/>
            <path class="cls-4" d="M288.2,581h18.3c12.7,0,22.3,2.2,28.9,6.6,6.6,4.4,9.9,10.8,9.9,19.2s-1.6,11.5-4.9,15.4c-3.3,3.9-7.8,6.8-13.6,8.5-5.8,1.8-12.3,2.6-19.3,2.6h-19.2v-52.3ZM307.8,592.1v30c5.9-.3,10.1-1.6,12.6-3.8,2.5-2.2,3.7-5.9,3.7-11s-.4-5.6-1.3-7.7c-.9-2.1-2.1-3.7-3.8-4.9-1.7-1.1-3.4-1.8-5-2.1s-3.7-.4-6.2-.5Z"/>
            <path class="cls-4" d="M359.1,581h19.6v52.3h-19.6v-52.3Z"/>
            <path class="cls-4" d="M457.2,604v8.8c0,6.8-2.7,12.1-8.1,16-5.4,3.9-12.8,5.8-22.2,5.8s-18.6-2.4-24.4-7.2c-5.7-4.8-8.6-11.6-8.6-20.5s2.9-15.8,8.6-20.4c5.7-4.6,14.1-7,25-7s21.2,4,26.7,12l-18.7,4.7c-1.5-1.7-3-2.9-4.3-3.7-1.3-.8-3.2-1.2-5.5-1.2-4,0-6.8,1.3-8.4,3.8-1.7,2.5-2.5,6.6-2.5,12.3s.9,9.1,2.8,11.6c1.9,2.5,4.9,3.7,8.9,3.7,6.5,0,9.9-2.8,10.1-8.5h-9.1v-10.2h29.5Z"/>
            <path class="cls-4" d="M499.7,634.6c-10.4,0-18.4-2.4-23.8-7.3-5.5-4.8-8.2-11.8-8.2-21s2.7-15,8.2-19.7c5.5-4.7,13.1-7.1,23-7.1s18.5,2.4,24,7.1,8.3,11.5,8.3,20.3-2.7,15.6-8.2,20.4c-5.4,4.8-13.2,7.3-23.3,7.3ZM499,591.4c-7.1,0-10.6,5-10.6,15.1s.9,10.8,2.7,13c1.8,2.2,4.4,3.3,7.8,3.3s6.5-1.1,8.4-3.3c2-2.2,2.9-6.4,2.9-12.7,0-10.2-3.7-15.3-11.2-15.3Z"/>
          </g>
          <g>
            <path class="cls-4" d="M153.1,688.9h-4.9v-21.7c0-.9,0-1.8.1-2.9s.2-2.2.3-3.4h-.1c-.2.7-.5,1.3-.7,1.9-.2.5-.4.9-.6,1.3l-14.4,24.8h-2.4l-14.4-24.7c-.2-.4-.4-.8-.6-1.4s-.4-1.2-.6-1.9h-.1c0,.6.1,1.5.2,2.5s0,2.3,0,3.8v21.6h-4.8v-32.3h6.5l13,22.5c.5.9.9,1.6,1.3,2.3s.6,1.2.7,1.6h.2c.4-.9.8-1.7,1.1-2.3s.6-1.2.9-1.6l13.2-22.5h6.2v32.3Z"/>
            <path class="cls-4" d="M159.4,688.9l16.2-32.3h5.1l16.3,32.3h-5.5l-4.3-8.7h-18.3l-4,8.7h-5.5ZM170.6,676.8h15l-6.8-14.2c-.1-.2-.2-.5-.3-.9s-.2-.8-.3-1.3h-.1c0,.5-.2.9-.3,1.2s-.2.7-.4.9l-6.8,14.2Z"/>
            <path class="cls-4" d="M233.1,688.9h-5.9l-7.3-9.2c-1.4-1.7-2.5-2.8-3.5-3.3-1-.5-2.1-.7-3.5-.7h-4.9v13.2h-5v-32.3h12.6c3.7,0,6.7.7,9.2,2.2,2.4,1.5,3.7,3.7,3.7,6.6s-.8,4.2-2.3,5.7c-1.6,1.5-3.7,2.7-6.4,3.4h0c.9.5,1.7.9,2.3,1.4.7.5,1.4,1.2,2.1,2.1l8.8,10.9ZM208.1,660v12.3h6.7c2.5,0,4.5-.6,6.1-1.8s2.5-2.8,2.5-4.7-.7-3.1-2.2-4.1c-1.5-1-3.6-1.6-6.4-1.6h-6.8Z"/>
            <path class="cls-4" d="M268.7,688.9h-6.9l-16.3-14.8c-.3-.3-.5-.5-.7-.7s-.3-.3-.4-.4h-.1v15.9h-5v-32.3h5v15.2h.1c.1-.2.3-.3.5-.5.2-.2.4-.4.6-.6l15.8-14.1h6.2l-18.1,15.5,19.4,16.8Z"/>
            <path class="cls-4" d="M296.7,688.9h-22.4v-32.3h21.5v3.4h-16.5v10.8h15.3v3.4h-15.3v11.3h17.5v3.4Z"/>
            <path class="cls-4" d="M329.8,660h-12.2v28.9h-5v-28.9h-12.2v-3.4h29.3v3.4Z"/>
            <path class="cls-4" d="M341.5,677v11.9h-5v-32.3h11.6c4.5,0,8,.9,10.5,2.6s3.7,4.1,3.7,7.3-1.4,5.7-4.1,7.7-6.5,3-11.2,3h-5.6ZM341.5,660v13.6h5.2c3.4,0,6-.6,7.8-1.8,1.8-1.2,2.7-3,2.7-5.2s-.8-3.8-2.5-4.9c-1.6-1.1-4.1-1.6-7.4-1.6h-5.8Z"/>
            <path class="cls-4" d="M392.3,688.9h-21.9v-32.3h5v28.9h17v3.4Z"/>
            <path class="cls-4" d="M395.6,688.9l16.2-32.3h5.1l16.3,32.3h-5.5l-4.3-8.7h-18.3l-4,8.7h-5.5ZM406.8,676.8h15l-6.8-14.2c-.1-.2-.2-.5-.3-.9s-.2-.8-.3-1.3h-.1c0,.5-.2.9-.3,1.2s-.2.7-.4.9l-6.8,14.2Z"/>
            <path class="cls-4" d="M468.1,687.3c-2,.8-4,1.3-6,1.6s-4.1.5-6.3.5c-6.4,0-11.4-1.5-14.9-4.4-3.6-3-5.3-6.8-5.3-11.7s2-9.5,5.9-12.6c4-3.1,9.1-4.7,15.5-4.7s3.8.1,5.6.4,3.5.7,5.4,1.4l-1.8,3.1c-1.6-.5-3.1-.9-4.5-1.1s-3-.3-4.7-.3c-5,0-8.9,1.2-11.8,3.7s-4.4,5.8-4.4,10,1.4,7.1,4.2,9.4c2.8,2.3,6.5,3.5,11.1,3.5s3.4-.1,5-.4,3.3-.8,5-1.4l2,3.1Z"/>
            <path class="cls-4" d="M498.1,688.9h-22.4v-32.3h21.5v3.4h-16.5v10.8h15.3v3.4h-15.3v11.3h17.5v3.4Z"/>
          </g>
        </g>
      </g>
    </g>
  </g>
</svg>